<svg width="1280" height="720" xmlns="http://www.w3.org/2000/svg" xmlns:xlink="http://www.w3.org/1999/xlink" overflow="hidden"><defs><clipPath id="clip0"><rect x="0" y="0" width="1280" height="720"/></clipPath><clipPath id="clip1"><rect x="591" y="115" width="96" height="96"/></clipPath><clipPath id="clip2"><rect x="591" y="115" width="96" height="96"/></clipPath><clipPath id="clip3"><rect x="591" y="115" width="96" height="96"/></clipPath><clipPath id="clip4"><rect x="262" y="134" width="52" height="52"/></clipPath><clipPath id="clip5"><rect x="262" y="134" width="52" height="52"/></clipPath><clipPath id="clip6"><rect x="262" y="134" width="52" height="52"/></clipPath><clipPath id="clip7"><rect x="24" y="131" width="60" height="56"/></clipPath><clipPath id="clip8"><rect x="24" y="131" width="60" height="56"/></clipPath><clipPath id="clip9"><rect x="24" y="131" width="60" height="56"/></clipPath></defs><g clip-path="url(#clip0)"><rect x="0" y="0" width="1280" height="720" fill="#2F5597"/><rect x="0" y="163" width="1280" height="557" fill="#0070C0"/><path d="M260 110.001C260 106.135 263.135 103 267.001 103L485.999 103C489.865 103 493 106.135 493 110.001L493 208.999C493 212.865 489.865 216 485.999 216L267.001 216C263.135 216 260 212.865 260 208.999Z" fill="#FFFFFF" fill-rule="evenodd"/><path d="M14 109.252C14 105.799 16.7993 103 20.2523 103L227.748 103C231.201 103 234 105.799 234 109.252L234 209.748C234 213.201 231.201 216 227.748 216L20.2523 216C16.7993 216 14 213.201 14 209.748Z" fill="#FFFFFF" fill-rule="evenodd"/><path d="M14 251.683C14 247.44 17.44 244 21.6834 244L483.317 244C487.56 244 491 247.44 491 251.683L491 473.317C491 477.56 487.56 481 483.317 481L21.6834 481C17.44 481 14 477.56 14 473.317Z" fill="#FFFFFF" fill-rule="evenodd"/><path d="M14 505.973C14 502.674 16.6744 500 19.9735 500L485.027 500C488.326 500 491 502.674 491 505.973L491 687.027C491 690.326 488.326 693 485.027 693L19.9735 693C16.6744 693 14 690.326 14 687.027Z" fill="#FFFFFF" fill-rule="evenodd"/><path d="M505 249.614C505 246.514 507.514 244 510.614 244L767.385 244C770.486 244 773 246.514 773 249.614L773 687.385C773 690.486 770.486 693 767.385 693L510.614 693C507.514 693 505 690.486 505 687.385Z" fill="#FFFFFF" fill-rule="evenodd"/><path d="M787 108.432C787 105.432 789.432 103 792.432 103L1258.57 103C1261.57 103 1264 105.432 1264 108.432L1264 475.568C1264 478.568 1261.57 481 1258.57 481L792.432 481C789.432 481 787 478.568 787 475.568Z" fill="#FFFFFF" fill-rule="evenodd"/><path d="M787 505.973C787 502.674 789.674 500 792.973 500L1258.03 500C1261.33 500 1264 502.674 1264 505.973L1264 687.027C1264 690.326 1261.33 693 1258.03 693L792.973 693C789.674 693 787 690.326 787 687.027Z" fill="#FFFFFF" fill-rule="evenodd"/><g clip-path="url(#clip1)"><g clip-path="url(#clip2)"><g clip-path="url(#clip3)"><path d="M630.537 180.294C630.265 179.813 629.655 179.643 629.174 179.915 628.693 180.187 628.523 180.797 628.795 181.278L632.783 188.329C632.789 188.34 632.783 188.346 632.771 188.344 618.18 185.219 608.885 170.858 612.01 156.267 612.347 154.695 612.823 153.157 613.433 151.67 613.643 151.159 613.4 150.574 612.889 150.364 612.378 150.154 611.793 150.397 611.583 150.908 605.498 165.738 612.587 182.693 627.418 188.778 628.863 189.371 630.354 189.847 631.876 190.2 631.89 190.2 631.891 190.211 631.876 190.217L625.3 193.938C624.819 194.21 624.649 194.82 624.922 195.301 625.193 195.783 625.804 195.952 626.285 195.68L635.231 190.62C635.712 190.348 635.881 189.738 635.609 189.257 635.609 189.257 635.609 189.257 635.609 189.257Z" fill="#FFFFFF"/><path d="M673.7 155.565 664.836 150.365C664.36 150.086 663.748 150.245 663.468 150.721L658.259 159.6C657.98 160.076 658.139 160.688 658.615 160.968 658.768 161.059 658.942 161.106 659.12 161.106 659.475 161.106 659.803 160.918 659.983 160.612L664.078 153.637C664.084 153.626 664.093 153.627 664.097 153.637 667.966 165.751 662.894 178.926 651.9 185.317 648.854 187.083 645.49 188.233 642 188.7 641.453 188.774 641.069 189.277 641.143 189.825 641.21 190.32 641.631 190.69 642.131 190.691 642.176 190.691 642.221 190.688 642.266 190.683 658.151 188.536 669.287 173.917 667.14 158.032 666.931 156.486 666.598 154.959 666.143 153.466 666.143 153.453 666.143 153.448 666.157 153.455L672.691 157.29C673.156 157.587 673.775 157.452 674.072 156.986 674.37 156.521 674.234 155.903 673.768 155.605 673.746 155.591 673.723 155.577 673.7 155.565Z" fill="#FFFFFF"/><path d="M616.147 145.819 626.447 145.871 626.447 145.871C626.999 145.872 627.448 145.426 627.45 144.874 627.451 144.321 627.004 143.872 626.452 143.871L618.412 143.83C618.399 143.83 618.396 143.823 618.404 143.813 628.42 132.76 645.499 131.918 656.553 141.934 657.733 143.003 658.816 144.175 659.79 145.435 660.125 145.874 660.753 145.959 661.192 145.624 661.631 145.289 661.715 144.661 661.38 144.222 661.378 144.219 661.376 144.217 661.374 144.214 651.574 131.53 633.347 129.192 620.663 138.993 619.419 139.954 618.254 141.015 617.182 142.165 617.173 142.175 617.165 142.172 617.165 142.159L617.203 134.547C617.203 133.995 616.755 133.547 616.203 133.547L616.203 133.547C615.653 133.547 615.206 133.992 615.203 134.542L615.152 144.819C615.152 145.369 615.597 145.816 616.147 145.819Z" fill="#FFFFFF"/><path d="M643.335 167.601 646.373 165.865 646.373 162.827 643.335 164.563 643.335 167.601Z" fill="#FFFFFF"/><path d="M654.922 153.229 639.589 143.921 624.255 153.229 624.255 170.655 639.589 179.961 654.922 170.655ZM652 153.792 647.371 156.6 634.893 149.112 639.593 146.261ZM639.594 161.322 627.188 153.792 632.966 150.285 645.444 157.771ZM626.255 155.568 638.589 163.055 638.589 177.015 626.255 169.529ZM640.589 177.015 640.589 163.055 652.922 155.568 652.922 169.529Z" fill="#FFFFFF"/></g></g></g><g clip-path="url(#clip4)"><g clip-path="url(#clip5)"><g clip-path="url(#clip6)"><path d="M296.087 161.083C294.256 159.523 291.878 158.792 289.625 158.088L289.625 144.99C291.813 145.198 293.857 146.171 295.399 147.737L297.999 145.245C295.774 142.982 292.793 141.618 289.625 141.415L289.625 136.708 286.375 136.708 286.375 141.621C285.262 141.838 284.188 142.221 283.19 142.759 279.084 144.996 276.988 150.25 278.672 154.675 279.978 158.088 283.125 159.61 286.375 160.753L286.375 174.934C283.856 174.625 281.765 173.179 280.032 171.375L277.432 173.861C278.67 175.266 280.146 176.441 281.793 177.333 283.231 178.018 284.786 178.428 286.375 178.541L286.375 183.292 289.625 183.292 289.625 178.417C293.352 177.794 296.775 175.503 298.248 171.917 299.722 168.331 299.185 163.732 296.087 161.083ZM283.667 155.52C280.688 153.007 281.413 148.143 284.571 146.128 285.131 145.769 285.738 145.49 286.375 145.299L286.375 157.048C285.394 156.691 284.479 156.175 283.667 155.52ZM293.465 172.756C292.408 173.79 291.074 174.495 289.625 174.788L289.625 161.847C291.792 162.589 294.278 163.532 295.161 165.839 296.044 168.147 295.155 171.034 293.465 172.756Z" fill="#2F5597"/></g></g></g><g clip-path="url(#clip7)"><g clip-path="url(#clip8)"><g clip-path="url(#clip9)"><path d="M50.1667 41.4167 48.4167 43.1667 8.16667 43.1667 5.83333 40.8333 5.83333 29.1667 8.16667 26.8333 48.4167 26.8333 50.1667 28.5833 50.1667 41.4167ZM2.33333 23.3333 2.33333 46.6667 53.6667 46.6667 53.6667 23.3333 2.33333 23.3333Z" fill="#28C846" transform="matrix(1.07143 0 0 1 24 131)"/><path d="M32.6667 35C32.6667 38.2217 30.5773 40.8333 28 40.8333 25.4227 40.8333 23.3333 38.2217 23.3333 35 23.3333 31.7783 25.4227 29.1667 28 29.1667 30.5773 29.1667 32.6667 31.7783 32.6667 35Z" fill="#28C846" transform="matrix(1.07143 0 0 1 24 131)"/><path d="M15.1667 35C15.1667 35.9665 14.3832 36.75 13.4167 36.75 12.4502 36.75 11.6667 35.9665 11.6667 35 11.6667 34.0335 12.4502 33.25 13.4167 33.25 14.3832 33.25 15.1667 34.0335 15.1667 35Z" fill="#28C846" transform="matrix(1.07143 0 0 1 24 131)"/><path d="M44.3333 35C44.3333 35.9665 43.5498 36.75 42.5833 36.75 41.6168 36.75 40.8333 35.9665 40.8333 35 40.8333 34.0335 41.6168 33.25 42.5833 33.25 43.5498 33.25 44.3333 34.0335 44.3333 35Z" fill="#28C846" transform="matrix(1.07143 0 0 1 24 131)"/><path d="M38.4417 12.075 39.3167 14.2917 42.8167 13.5917 40.3667 7.46667 8.98333 20.3 26.95 16.7417Z" fill="#28C846" transform="matrix(1.07143 0 0 1 24 131)"/><path d="M35.4083 21 44.625 19.1917 45.0333 21 48.5917 21 47.425 15.05 17.5 21Z" fill="#28C846" transform="matrix(1.07143 0 0 1 24 131)"/></g></g></g></g></svg>