<svg width="1280" height="720" xmlns="http://www.w3.org/2000/svg" xmlns:xlink="http://www.w3.org/1999/xlink" overflow="hidden"><defs><clipPath id="clip0"><rect x="0" y="0" width="1280" height="720"/></clipPath><clipPath id="clip1"><rect x="810" y="202" width="134" height="134"/></clipPath><clipPath id="clip2"><rect x="810" y="202" width="134" height="134"/></clipPath><clipPath id="clip3"><rect x="810" y="202" width="134" height="134"/></clipPath></defs><g clip-path="url(#clip0)"><rect x="0" y="0" width="1280" height="720" fill="#2F5597"/><rect x="0" y="163" width="1280" height="557" fill="#8FAADC"/><path d="M195 130.75C195 127.574 197.574 125 200.75 125L603.25 125C606.426 125 609 127.574 609 130.75L609 489.25C609 492.426 606.426 495 603.25 495L200.75 495C197.574 495 195 492.426 195 489.25Z" fill="#FFFFFF" fill-rule="evenodd"/><path d="M670 129.75C670 126.574 672.574 124 675.75 124L1078.25 124C1081.43 124 1084 126.574 1084 129.75L1084 488.25C1084 491.426 1081.43 494 1078.25 494L675.75 494C672.574 494 670 491.426 670 488.25Z" fill="#FFFFFF" fill-rule="evenodd"/><text fill="#FFFFFF" font-family="Calibri,Calibri_MSFontService,sans-serif" font-weight="700" font-size="27" transform="translate(525.6 77)">Welcome to Super Store</text><g clip-path="url(#clip1)"><g clip-path="url(#clip2)"><g clip-path="url(#clip3)"><path d="M924.416 315.062 832.333 315.062 832.333 222.938 829.542 222.938 829.542 317.854 924.416 317.854 924.416 315.062Z" fill="#2F5597"/><path d="M924.458 222.938 902.125 222.938 902.125 306.688 924.458 306.688ZM921.667 303.896 904.917 303.896 904.917 225.729 921.667 225.729Z" fill="#2F5597"/><path d="M871.417 306.688 893.75 306.688 893.75 253.646 871.417 253.646ZM874.208 256.438 890.958 256.438 890.958 303.896 874.208 303.896Z" fill="#2F5597"/><path d="M840.708 306.688 863.042 306.688 863.042 278.771 840.708 278.771ZM843.5 281.562 860.25 281.562 860.25 303.896 843.5 303.896Z" fill="#2F5597"/><path d="M841.695 268.591 882.564 227.722C882.569 227.717 882.578 227.717 882.583 227.723 882.586 227.725 882.588 227.729 882.588 227.732L882.588 241.083 885.379 241.083 885.379 222.938 867.271 222.938 867.271 225.729 880.576 225.729C880.584 225.729 880.59 225.736 880.59 225.743 880.59 225.747 880.588 225.75 880.586 225.753L839.721 266.617Z" fill="#2F5597"/></g></g></g><text fill="#002060" font-family="Calibri,Calibri_MSFontService,sans-serif" font-weight="700" font-size="27" transform="translate(797.12 172)">Retail Analysis</text><text fill="#262626" font-family="Calibri,Calibri_MSFontService,sans-serif" font-weight="400" font-size="21" transform="translate(703.296 390)">-</text><text fill="#262626" font-family="Calibri,Calibri_MSFontService,sans-serif" font-weight="400" font-size="21" transform="translate(733.296 390)">Orders details</text><text fill="#262626" font-family="Calibri,Calibri_MSFontService,sans-serif" font-weight="400" font-size="21" transform="translate(703.296 416)">-</text><text fill="#262626" font-family="Calibri,Calibri_MSFontService,sans-serif" font-weight="400" font-size="21" transform="translate(733.296 416)">Discounts</text><text fill="#262626" font-family="Calibri,Calibri_MSFontService,sans-serif" font-weight="400" font-size="21" transform="translate(703.296 441)">-</text><text fill="#262626" font-family="Calibri,Calibri_MSFontService,sans-serif" font-weight="400" font-size="21" transform="translate(733.296 441)">Sales and Profit</text><text fill="#F2F2F2" font-family="Calibri Light,Calibri Light_MSFontService,sans-serif" font-weight="700" font-size="16" transform="translate(560.296 103)">Click icon to drill into analysis</text><text fill="#FF0000" font-family="Calibri,Calibri_MSFontService,sans-serif" font-weight="700" font-size="27" transform="translate(333.657 172)">Weak</text><text fill="#FF0000" font-family="Calibri,Calibri_MSFontService,sans-serif" font-weight="700" font-size="27" transform="translate(402.371 172)">Points</text></g></svg>